<svg width="25" height="25" viewBox="0 0 25 25" fill="none" xmlns="http://www.w3.org/2000/svg">
<path fill-rule="evenodd" clip-rule="evenodd" d="M5.94249 6.2439H22.1576L20.6133 15.6098H7.48679L5.94249 6.2439Z" stroke="black" stroke-linecap="round" stroke-linejoin="round"/>
<path fill-rule="evenodd" clip-rule="evenodd" d="M9.36584 20.813C9.94058 20.813 10.4065 20.3471 10.4065 19.7724C10.4065 19.1976 9.94058 18.7317 9.36584 18.7317C8.79111 18.7317 8.3252 19.1976 8.3252 19.7724C8.3252 20.3471 8.79111 20.813 9.36584 20.813Z" stroke="black"/>
<path fill-rule="evenodd" clip-rule="evenodd" d="M18.7321 20.813C19.3068 20.813 19.7727 20.3471 19.7727 19.7724C19.7727 19.1976 19.3068 18.7317 18.7321 18.7317C18.1573 18.7317 17.6914 19.1976 17.6914 19.7724C17.6914 20.3471 18.1573 20.813 18.7321 20.813Z" stroke="black"/>
<path d="M7.28467 6.24392H3.12207" stroke="black" stroke-linecap="round"/>
</svg>
