<svg width="16" height="17" viewBox="0 0 16 17" fill="none" xmlns="http://www.w3.org/2000/svg">
<g clip-path="url(#clip0_1234_35)">
<path d="M16 0.5H0V16.5H16V0.5Z" fill="#00247D"/>
<path fill-rule="evenodd" clip-rule="evenodd" d="M6.20461 8.5L-0.727539 1.56785L0.727467 -0.567841L7.99996 6.70465L15.2725 -0.567841L16.7275 1.56785L9.79531 8.5L16.7275 15.4322L15.2725 17.5678L7.99996 10.2954L0.727467 17.5678L-0.727539 15.4322L6.20461 8.5Z" fill="white"/>
<path fill-rule="evenodd" clip-rule="evenodd" d="M5.90555 8.5L-0.848633 1.74582L0.848874 -0.745819L8.00012 6.40543L15.1514 -0.745819L16.8489 1.74582L10.0947 8.5L16.8489 15.2542L15.1514 17.7458L8.00012 10.5946L0.848874 17.7458L-0.848633 15.2542L5.90555 8.5Z" fill="white"/>
<path fill-rule="evenodd" clip-rule="evenodd" d="M6.40432 8.50001L-0.646484 1.44921L0.646854 -0.449188L8.00019 6.90414L15.3535 -0.449188L16.6469 1.44921L9.59605 8.50001L16.6469 15.5508L15.3535 17.4492L8.00019 10.0959L0.646854 17.4492L-0.646484 15.5508L6.40432 8.50001Z" fill="#FF1612"/>
<path fill-rule="evenodd" clip-rule="evenodd" d="M9.65079 10.5V16.5H6.34921V10.5H0V6.5H6.34921V0.5H9.65079V6.5H16V10.5H9.65079Z" fill="white"/>
<path fill-rule="evenodd" clip-rule="evenodd" d="M9.14286 9.88461V16.5H6.85714V9.88461H0V7.11538H6.85714V0.5H9.14286V7.11538H16V9.88461H9.14286Z" fill="#FF1612"/>
</g>
<defs>
<clipPath id="clip0_1234_35">
<rect y="0.5" width="16" height="16" rx="8" fill="white"/>
</clipPath>
</defs>
</svg>
