<svg width="149" height="30" viewBox="0 0 149 30" fill="none" xmlns="http://www.w3.org/2000/svg">
<path fill-rule="evenodd" clip-rule="evenodd" d="M14.7267 21.8988L7.58826 25.6517L8.95159 17.7029L3.17644 12.0735L11.1575 10.9138L14.7267 3.68169L18.296 10.9138L26.277 12.0735L20.5019 17.7029L21.8652 25.6517L14.7267 21.8988Z" fill="#1977DA"/>
<path fill-rule="evenodd" clip-rule="evenodd" d="M44.1799 21.8988L37.0414 25.6517L38.4047 17.7029L32.6296 12.0735L40.6106 10.9138L44.1799 3.68169L47.7491 10.9138L55.7302 12.0735L49.955 17.7029L51.3183 25.6517L44.1799 21.8988Z" fill="#1977DA"/>
<path fill-rule="evenodd" clip-rule="evenodd" d="M74.5007 21.8988L66.9423 25.6517L68.3858 17.7029L62.271 12.0735L70.7215 10.9138L74.5007 3.68169L78.2799 10.9138L86.7304 12.0735L80.6156 17.7029L82.0591 25.6517L74.5007 21.8988Z" fill="#1977DA"/>
<path fill-rule="evenodd" clip-rule="evenodd" d="M104.82 21.8988L97.681 25.6517L99.0444 17.7029L93.2692 12.0735L101.25 10.9138L104.82 3.68169L108.389 10.9138L116.37 12.0735L110.595 17.7029L111.958 25.6517L104.82 21.8988Z" fill="#1977DA"/>
<path fill-rule="evenodd" clip-rule="evenodd" d="M134.274 21.8988L127.135 25.6517L128.498 17.7029L122.723 12.0735L130.704 10.9138L134.274 3.68169L137.843 10.9138L145.824 12.0735L140.049 17.7029L141.412 25.6517L134.274 21.8988Z" stroke="#1977DA" stroke-linecap="round" stroke-linejoin="round"/>
</svg>
